<?xml version="1.0" encoding="UTF-8" standalone="no"?><!DOCTYPE svg PUBLIC "-//W3C//DTD SVG 1.1//EN" "http://www.w3.org/Graphics/SVG/1.1/DTD/svg11.dtd"><svg width="100%" height="100%" viewBox="0 0 331 331" version="1.1" xmlns="http://www.w3.org/2000/svg" xmlns:xlink="http://www.w3.org/1999/xlink" xml:space="preserve" xmlns:serif="http://www.serif.com/" style="fill-rule:evenodd;clip-rule:evenodd;stroke-linejoin:round;stroke-miterlimit:1.41421;"><rect id="Icon" x="0" y="0" width="330.439" height="330.439" style="fill:none;"/><path id="Magnifying-Glass" serif:id="Magnifying Glass" d="M220.231,132.237c8.735,-59.697 -49.439,-112.967 -109.125,-98.913c-21.679,5.104 -39.447,18.101 -52.31,36.05c-6.287,8.772 -11.251,21.221 -13.369,31.748c-12.923,64.21 51.042,121.706 113.767,102.322c12.472,-3.854 23.676,-10.214 33.294,-19.056l11.032,11.032c0.203,0.182 0.401,0.37 0.596,0.565l108.452,108.452c13.893,13.893 -7.65,35.437 -21.544,21.543l-102.181,-102.181c-74.62,40.295 -170.707,-15.81 -175.201,-99.6c-0.456,-8.504 0.114,-20.427 2.101,-28.723c4.017,-16.774 8.232,-28.43 17.907,-42.84c8.909,-13.27 19.321,-23.298 32.399,-32.399c9.918,-6.902 23.514,-13.028 35.128,-16.272c55.459,-15.487 118.751,16.265 141.325,69.001c8.583,20.051 11.055,43.066 7.53,64.712c0,0 -2.481,12.279 -16.895,10.28c-14.805,-2.053 -12.906,-15.721 -12.906,-15.721Z"/></svg>